<?xml version="1.0" encoding="utf-8"?>
<!-- Generator: Adobe Illustrator 23.0.3, SVG Export Plug-In . SVG Version: 6.00 Build 0)  -->
<svg version="1.1" id="iconmonstr" xmlns="http://www.w3.org/2000/svg" xmlns:xlink="http://www.w3.org/1999/xlink" x="0px" y="0px"
	 viewBox="0 0 24 24" style="enable-background:new 0 0 24 24;" xml:space="preserve">
<style type="text/css">
	.st0{fill:none;}
	.st1{fill:none;stroke:#FFFFFF;stroke-miterlimit:10;}
</style>
<path class="st0" d="M26.296,4.672c-2.757,0-5,2.243-5,5.001c0,2.756,2.243,5,5,5c2.757,0,5-2.244,5-5
	C31.296,6.916,29.052,4.672,26.296,4.672z"/>
<path class="st0" d="M26.296,4.672c-2.757,0-5,2.243-5,5.001c0,2.756,2.243,5,5,5c2.757,0,5-2.244,5-5
	C31.296,6.916,29.052,4.672,26.296,4.672z"/>
<g>
	<path class="st1" d="M5.941,13.209c-4.003,2.89-5.275,7.999-5.275,10.033h22.565c0-2.014-1.354-7.105-5.294-10.011"/>
	<path class="st1" d="M11.949,0.677c-3.635,0-6.581,2.946-6.581,6.582c0,3.634,2.946,6.581,6.581,6.581s6.581-2.947,6.581-6.581
		C18.53,3.623,15.584,0.677,11.949,0.677z"/>
</g>
</svg>
