<?xml version="1.0" encoding="utf-8"?>
<!-- Generator: Adobe Illustrator 23.0.3, SVG Export Plug-In . SVG Version: 6.00 Build 0)  -->
<svg version="1.1" id="iconmonstr" xmlns="http://www.w3.org/2000/svg" xmlns:xlink="http://www.w3.org/1999/xlink" x="0px" y="0px"
	 viewBox="0 0 24 24" style="enable-background:new 0 0 24 24;" xml:space="preserve">
<style type="text/css">
	.st0{fill:none;}
	.st1{fill:none;stroke:#FFFFFF;stroke-miterlimit:10;}
</style>
<path class="st0" d="M26.296,4.672c-2.757,0-5,2.243-5,5.001c0,2.756,2.243,5,5,5c2.757,0,5-2.244,5-5
	C31.296,6.916,29.052,4.672,26.296,4.672z"/>
<path class="st0" d="M26.296,4.672c-2.757,0-5,2.243-5,5.001c0,2.756,2.243,5,5,5c2.757,0,5-2.244,5-5
	C31.296,6.916,29.052,4.672,26.296,4.672z"/>
<g>
	<path class="st1" d="M19.906,16.001c-4.258,3.074-5.61,8.508-5.61,10.671h24c0-2.142-1.44-7.557-5.631-10.647"/>
	<path class="st1" d="M26.296,2.672c-3.866,0-7,3.134-7,7.001c0,3.865,3.134,7,7,7s7-3.135,7-7
		C33.296,5.806,30.162,2.672,26.296,2.672z"/>
</g>
</svg>
